<?xml version="1.0" standalone="no"?>
<!DOCTYPE svg PUBLIC "-//W3C//DTD SVG 20010904//EN"
 "http://www.w3.org/TR/2001/REC-SVG-20010904/DTD/svg10.dtd">
<svg version="1.0" xmlns="http://www.w3.org/2000/svg"
 width="512.000000pt" height="512.000000pt" viewBox="0 0 512.000000 512.000000"
 preserveAspectRatio="xMidYMid meet">

<g transform="translate(0.000000,512.000000) scale(0.100000,-0.100000)"
fill="#000000" stroke="none">
<path d="M2323 5109 c-702 -63 -1379 -440 -1804 -1006 -470 -625 -630 -1416
-438 -2176 138 -551 480 -1066 936 -1408 625 -470 1416 -630 2176 -438 551
138 1066 480 1408 936 590 785 683 1832 240 2701 -479 938 -1469 1485 -2518
1391z m567 -164 c534 -74 1047 -338 1415 -727 355 -377 573 -838 646 -1368 20
-139 17 -478 -5 -620 -77 -515 -297 -967 -646 -1333 -376 -394 -852 -638
-1410 -724 -159 -24 -501 -24 -660 0 -445 68 -830 234 -1175 505 -90 71 -306
287 -377 377 -273 348 -438 732 -504 1175 -22 140 -25 479 -6 620 71 529 291
993 648 1369 413 435 962 693 1579 745 95 8 380 -3 495 -19z"/>
<path d="M2265 4703 c-457 -61 -884 -274 -1221 -608 -424 -422 -644 -945 -644
-1535 0 -585 218 -1108 634 -1526 414 -415 942 -634 1526 -634 193 0 361 21
540 66 864 221 1508 962 1611 1853 15 137 7 475 -16 596 -42 229 -100 407
-196 602 -318 648 -946 1096 -1662 1188 -148 19 -424 18 -572 -2z m216 -340
c0 -134 4 -220 12 -243 14 -39 48 -57 91 -46 49 12 56 50 56 286 l0 211 83 -6
c178 -14 395 -64 572 -132 394 -153 747 -448 977 -818 164 -263 269 -583 293
-892 l6 -83 -211 0 c-236 0 -274 -7 -286 -56 -11 -43 7 -77 46 -91 23 -8 109
-12 243 -12 l208 -1 -6 -77 c-50 -625 -395 -1199 -922 -1536 -87 -56 -267
-147 -361 -183 -163 -63 -391 -115 -564 -129 l-78 -6 0 211 c0 160 -3 219 -14
245 -16 37 -48 52 -92 41 -46 -12 -54 -52 -54 -286 l0 -210 -72 6 c-632 51
-1203 393 -1541 921 -56 87 -147 267 -183 361 -63 163 -115 391 -129 565 l-6
77 208 1 c134 0 220 4 243 12 39 14 57 48 46 91 -12 49 -50 56 -286 56 l-211
0 6 78 c39 481 243 921 585 1262 299 299 647 482 1065 559 100 18 145 24 243
29 l32 2 1 -207z"/>
<path d="M2919 3239 c-332 -210 -612 -389 -623 -398 -10 -9 -29 -32 -41 -51
-321 -502 -755 -1198 -755 -1212 0 -11 14 -33 30 -50 24 -23 36 -29 56 -24 14
4 251 149 527 322 276 174 553 348 614 387 l113 70 379 601 c415 659 401 636
401 666 0 28 -43 70 -73 70 -15 0 -264 -151 -628 -381z m365 39 c-35 -60 -499
-796 -508 -805 -9 -10 -46 22 -165 141 l-154 155 64 40 c35 22 219 139 409
260 190 120 349 220 353 220 5 1 5 -5 1 -11z m-637 -934 c-11 -10 -708 -452
-786 -498 -24 -14 -32 -16 -26 -6 10 17 432 689 483 769 l34 54 154 -154 c119
-119 151 -156 141 -165z"/>
</g>
</svg>
